<?xml version="1.0" encoding="iso-8859-1"?>
<!-- Generator: Adobe Illustrator 23.0.3, SVG Export Plug-In . SVG Version: 6.00 Build 0)  -->
<svg version="1.1" xmlns="http://www.w3.org/2000/svg" xmlns:xlink="http://www.w3.org/1999/xlink" x="0px" y="0px"
	 viewBox="0 0 48 48" style="enable-background:new 0 0 48 48;" xml:space="preserve">
<g id="Layer_1" style="display:none;">
</g>
<g id="Layer_2">
</g>
<g id="Layer_3">
</g>
<g id="Layer_4">
</g>
<g id="Layer_5">
</g>
<g id="Layer_6">
</g>
<g id="Layer_7">
</g>
<g id="Layer_8">
</g>
<g id="Layer_9">
</g>
<g id="Layer_10">
</g>
<g id="Layer_11">
</g>
<g id="Layer_12">
</g>
<g id="Layer_13">
</g>
<g id="Layer_14">
</g>
<g id="Layer_15">
</g>
<g id="Layer_16">
</g>
<g id="Layer_17">
</g>
<g id="Layer_18">
</g>
<g id="Layer_19">
</g>
<g id="Layer_20">
</g>
<g id="Layer_21">
</g>
<g id="Layer_22">
</g>
<g id="Layer_23">
</g>
<g id="bull">
</g>
<g id="hiragana-ma">
</g>
<g id="r">
</g>
<g id="asterisk">
</g>
<g id="omega">
</g>
<g id="alpha">
</g>
<g id="pi">
</g>
<g id="mu">
</g>
<g id="sign_language_i">
</g>
<g id="butterfly">
</g>
<g id="pelican">
</g>
<g id="shark">
</g>
<g id="dog">
</g>
<g id="crab">
</g>
<g id="jaguar">
</g>
<g id="ok">
</g>
<g id="folder">
</g>
<g id="box">
</g>
<g id="bookmark-ribbon">
</g>
<g id="curly_arrow">
</g>
<g id="u-turn-left">
</g>
<g id="u_turn_right">
</g>
<g id="swap">
</g>
<g id="rotate">
</g>
<g id="drag">
</g>
<g id="reply">
</g>
<g id="cancer">
</g>
<g id="earth_element">
</g>
<g id="rat">
</g>
<g id="tiger">
</g>
<g id="dragon">
</g>
<g id="fortune_teller">
</g>
<g id="pacifier">
</g>
<g id="sippy_cup">
</g>
<g id="nappy">
</g>
<g id="mommy_and_me_classes">
</g>
<g id="lipstick">
</g>
<g id="afro-pick">
</g>
<g id="hair_dryer">
</g>
<g id="barbershop">
</g>
<g id="straight_razor">
</g>
<g id="barber_pole">
</g>
<g id="perfume_bottle" style="display:none;">
</g>
<g id="perfume_bottle_2">
</g>
<g id="inspection">
</g>
<g id="bank">
</g>
<g id="tax">
</g>
<g id="business">
</g>
<g id="super_mario">
</g>
<g id="anonymous_mask">
</g>
<g id="walter_white">
</g>
<g id="jake">
</g>
<g id="homer_simpson">
</g>
<g id="iron_man">
</g>
<g id="futurama_bender">
</g>
<g id="comedy" style="display:none;">
</g>
<g id="fantasy">
</g>
<g id="webinar">
</g>
<g id="group">
</g>
<g id="files">
</g>
<g id="oneline_community">
</g>
<g id="coaching">
</g>
<g id="video_conference">
</g>
<g id="online_community">
</g>
<g id="fantasy_1_">
</g>
<g id="documentary">
</g>
<g id="ticket">
</g>
<g id="treasure_chest">
</g>
<g id="short">
</g>
<g id="red_carpet">
</g>
<g id="theme_park">
</g>
<g id="city-buildings">
</g>
<g id="food_cart">
</g>
<g id="bridge">
</g>
<g id="prison">
</g>
<g id="waste_separation">
</g>
<g id="elections">
</g>
<g id="jumper">
</g>
<g id="baseball_cap">
</g>
<g id="machine_wash_warm">
</g>
<g id="watches_front_view">
</g>
<g id="bag_front_view">
</g>
<g id="skirt">
</g>
<g id="fireman_boots">
</g>
<g id="video_card">
</g>
<g id="motherboard">
</g>
<g id="ethernet_on">
</g>
<g id="usb_on">
</g>
<g id="stack">
</g>
<g id="virtual_reality">
</g>
<g id="hacking">
</g>
<g id="sex_offender">
</g>
<g id="car_theft">
</g>
<g id="burglary">
</g>
<g id="prisoner">
</g>
<g id="fraud">
</g>
<g id="bank_robbery">
</g>
<g id="phishing">
</g>
<g id="origami">
</g>
<g id="anubis">
</g>
<g id="frida_kahlo">
</g>
<g id="edvard_munch">
</g>
<g id="statue_of_liberty">
</g>
<g id="statue_of_liberty2">
</g>
<g id="day_of_the_dead">
</g>
<g id="mate">
</g>
<g id="saw_blade">
</g>
<g id="jig_saw">
</g>
<g id="blockchain_techology">
</g>
<g id="improvement">
	<path style="fill:#EF4823;" d="M4.233,29.5c3.163-0.167,6.858-0.359,10.451-0.117c-0.406,4.74-0.467,10.509-0.183,15.258
		c-3.57-0.161-7.149-0.113-10.714,0.143C3.97,39.9,4.051,34.384,4.233,29.5z"/>
	<path style="fill:#010101;" d="M3.787,45.284c-0.129,0-0.254-0.05-0.348-0.141c-0.102-0.099-0.157-0.236-0.152-0.378
		c0.091-2.44,0.157-5.038,0.223-7.636c0.063-2.47,0.125-4.939,0.209-7.274c-0.246-0.033-0.434-0.243-0.433-0.498
		c0.001-0.274,0.225-0.497,0.5-0.497c0.001,0,0.001,0,0.002,0c1.252,0.011,2.509-0.018,3.771-0.042
		c2.356-0.047,4.791-0.093,7.156,0.065c0.134,0.009,0.258,0.071,0.346,0.174c0.087,0.102,0.13,0.234,0.119,0.368
		C14.78,34.123,14.712,39.801,15,44.611c0.009,0.142-0.043,0.28-0.143,0.381c-0.099,0.102-0.233,0.161-0.378,0.148
		c-3.537-0.16-7.121-0.112-10.656,0.143C3.811,45.284,3.799,45.284,3.787,45.284z M4.72,29.86c-0.085,2.34-0.147,4.817-0.21,7.295
		c-0.061,2.405-0.122,4.812-0.203,7.092c3.208-0.21,6.455-0.253,9.664-0.128c-0.245-4.56-0.181-9.81,0.173-14.269
		c-2.166-0.116-4.398-0.075-6.563-0.033C6.624,29.836,5.669,29.854,4.72,29.86z"/>
	<path style="fill:#71C598;" d="M18.46,13.479c0.479,9.979-0.435,20.953,0.04,31.021c3.066,0.092,6.716,0.327,9.783,0.29
		c0.341-0.004,0.716-0.022,0.966-0.254c0.291-0.27,0.298-0.72,0.285-1.116c-0.065-1.973-0.131-3.946-0.196-5.919
		c-0.252-7.586-0.504-16.175-0.391-23.764C25.41,13.021,22.067,13.388,18.46,13.479"/>
	<path style="fill:#010101;" d="M27.609,45.294c-1.908,0-3.987-0.088-6.006-0.174c-1.074-0.046-2.127-0.091-3.119-0.12
		c-0.261-0.008-0.472-0.216-0.484-0.477c-0.238-5.047-0.127-10.395-0.019-15.565c0.107-5.151,0.218-10.479-0.021-15.454
		c-0.006-0.135,0.042-0.267,0.133-0.365s0.219-0.155,0.354-0.159c0.75-0.019,1.489-0.05,2.22-0.08
		c2.839-0.119,5.521-0.23,8.378,0.348c0.236,0.048,0.404,0.257,0.401,0.498c-0.113,7.62,0.142,16.249,0.39,23.739l0.197,5.918
		c0.012,0.369,0.034,1.056-0.445,1.499c-0.406,0.378-0.966,0.385-1.3,0.389C28.065,45.293,27.838,45.294,27.609,45.294z
		 M18.979,44.015c0.857,0.029,1.755,0.067,2.667,0.106c2.247,0.095,4.568,0.193,6.631,0.169c0.246-0.003,0.517-0.015,0.631-0.121
		c0.145-0.135,0.132-0.524,0.126-0.734l-0.197-5.917c-0.244-7.364-0.495-15.829-0.397-23.368c-2.592-0.467-5.094-0.362-7.731-0.251
		c-0.571,0.023-1.146,0.048-1.727,0.066c0.21,4.862,0.103,10.021-0.001,15.014C18.877,33.976,18.77,39.138,18.979,44.015z"/>
	<path style="fill:#FEBF10;" d="M33.619,22.629c-0.148,4.528,0.278,9.696,0.642,14.212c0.118,1.467,0.264,2.936,0.23,4.407
		c-0.027,1.17-0.169,2.337-0.421,3.48c3.168,0.216,6.356,0.134,9.509-0.246c0.227-7.179,0.469-14.807-0.286-21.95
		c-1.903,0.103-3.92-0.197-5.823-0.094c-0.908,0.049-2.526,0.425-3.361,0.066C33.933,22.428,33.734,22.477,33.619,22.629z"/>
	<path style="fill:#010101;" d="M37.514,45.345c-1.161,0-2.322-0.04-3.479-0.118c-0.145-0.01-0.279-0.083-0.366-0.199
		c-0.087-0.117-0.119-0.266-0.088-0.408c0.246-1.107,0.383-2.246,0.41-3.384c0.029-1.251-0.077-2.534-0.18-3.775l-0.048-0.579
		c-0.318-3.939-0.753-9.323-0.61-14.017c-0.129-0.203-0.122-0.465,0.031-0.666c0.167-0.219,0.497-0.421,1.122-0.153
		c0.482,0.206,1.496,0.081,2.235-0.013c0.334-0.041,0.645-0.08,0.9-0.094c0.977-0.055,1.987-0.002,2.964,0.047
		c0.95,0.048,1.935,0.098,2.859,0.047c0.262-0.01,0.497,0.182,0.524,0.446c0.758,7.162,0.52,14.693,0.29,21.976
		c-0.008,0.247-0.196,0.494-0.441,0.523C41.611,45.222,39.562,45.345,37.514,45.345z M34.674,44.265
		c2.806,0.158,5.632,0.082,8.417-0.23c0.221-6.996,0.429-14.169-0.25-20.985c-0.825,0.017-1.668-0.024-2.487-0.065
		c-0.951-0.047-1.934-0.095-2.859-0.047c-0.236,0.014-0.522,0.05-0.83,0.088c-0.85,0.106-1.803,0.226-2.519,0.022
		c-0.127,4.603,0.299,9.88,0.612,13.754l0.047,0.576c0.105,1.268,0.214,2.577,0.184,3.882
		C34.967,42.267,34.861,43.274,34.674,44.265z"/>
	<path style="fill:#4B7BB2;" d="M8.469,22.406c0.027,1.166,0.211,2.921,0.238,4.086c0.889-0.037,1.779-0.034,2.668,0.008
		c-0.016-1.294-0.015-2.769-0.031-4.063c1.106,0.123,1.878-0.08,2.98-0.233c-1.626-1.599-3.046-3.407-4.215-5.365
		c-1.614,1.986-3.228,3.971-4.842,5.957C6.334,22.404,7.336,22.303,8.469,22.406z"/>
	<path style="fill:#010101;" d="M11.375,27c-0.008,0-0.016,0-0.023-0.001c-0.863-0.04-1.747-0.042-2.624-0.007
		c-0.134,0.004-0.265-0.043-0.363-0.136c-0.098-0.091-0.154-0.219-0.158-0.353c-0.013-0.575-0.066-1.297-0.118-2.018
		c-0.041-0.559-0.081-1.117-0.104-1.611c-0.92-0.045-1.721,0.087-2.546,0.391c-0.21,0.079-0.449,0.005-0.58-0.178
		c-0.131-0.184-0.124-0.432,0.019-0.606l4.842-5.957c0.104-0.126,0.259-0.199,0.424-0.184c0.163,0.012,0.31,0.103,0.393,0.243
		c1.148,1.923,2.54,3.693,4.137,5.264c0.136,0.134,0.184,0.333,0.124,0.514c-0.06,0.181-0.217,0.312-0.406,0.338
		c-0.231,0.032-0.447,0.066-0.655,0.1c-0.641,0.102-1.205,0.187-1.889,0.175c0.004,0.485,0.007,0.989,0.01,1.492
		c0.004,0.691,0.008,1.382,0.016,2.028c0.001,0.138-0.054,0.27-0.153,0.365C11.629,26.95,11.504,27,11.375,27z M9.957,25.967
		c0.306,0,0.61,0.005,0.913,0.014c-0.004-0.491-0.007-1-0.01-1.509c-0.004-0.691-0.008-1.382-0.016-2.028
		c-0.001-0.144,0.058-0.28,0.165-0.376c0.106-0.097,0.249-0.142,0.391-0.127c0.699,0.078,1.249,0.015,1.885-0.083
		c-1.208-1.276-2.292-2.669-3.232-4.155L6.607,21.94c0.601-0.086,1.224-0.093,1.907-0.032c0.253,0.023,0.449,0.232,0.455,0.486
		c0.013,0.576,0.066,1.298,0.118,2.02c0.039,0.54,0.078,1.08,0.102,1.563C9.444,25.97,9.701,25.967,9.957,25.967z"/>
	<path style="fill:#4B7BB2;" d="M22.351,7.415c-0.065,0.892-0.188,2.203-0.06,3.088c0.861,0.006,1.722,0.012,2.584,0.018
		c-0.079-0.971,0.033-2.272,0.076-3.244c1.014,0.036,2.032-0.059,3.022-0.279c-1.594-1.586-3.013-3.346-4.225-5.24
		c-1.304,2.15-2.833,4.163-4.555,5.995C20.222,7.441,21.277,7.384,22.351,7.415z"/>
	<path style="fill:#010101;" d="M24.875,11.021c-0.001,0-0.002,0-0.003,0l-2.583-0.018c-0.247-0.002-0.456-0.184-0.491-0.429
		c-0.112-0.774-0.049-1.797,0.016-2.667c-0.979,0.004-1.758,0.106-2.475,0.323c-0.216,0.064-0.451-0.023-0.57-0.215
		c-0.12-0.192-0.095-0.441,0.061-0.606c1.695-1.803,3.206-3.792,4.492-5.912c0.09-0.147,0.249-0.238,0.422-0.24
		c0.168,0.017,0.334,0.086,0.427,0.23c1.191,1.862,2.589,3.597,4.156,5.155c0.129,0.129,0.179,0.318,0.128,0.493
		c-0.051,0.176-0.193,0.31-0.372,0.35c-0.874,0.194-1.766,0.295-2.657,0.299l-0.012,0.218c-0.046,0.825-0.099,1.76-0.04,2.478
		c0.011,0.141-0.037,0.278-0.132,0.381C25.146,10.963,25.014,11.021,24.875,11.021z M22.746,10.006l1.604,0.011
		c-0.014-0.665,0.028-1.402,0.065-2.071l0.036-0.691c0.012-0.274,0.253-0.497,0.517-0.478c0.665,0.023,1.331-0.011,1.99-0.104
		c-1.172-1.239-2.244-2.575-3.198-3.988c-0.958,1.504-2.025,2.939-3.19,4.286c0.54-0.059,1.127-0.074,1.795-0.056
		c0.136,0.004,0.265,0.063,0.356,0.165c0.091,0.101,0.138,0.235,0.127,0.371l-0.022,0.302C22.776,8.427,22.709,9.306,22.746,10.006z
		"/>
	<path style="fill:#4B7BB2;" d="M37.418,16.375c-0.012,1.05,0.081,2.101,0.277,3.132c0.923-0.12,1.853-0.189,2.784-0.206
		c-0.146-1.063-0.292-2.126-0.438-3.189c1.084-0.106,2.168-0.211,3.252-0.317c-0.711-0.837-1.369-1.719-1.968-2.64
		c-0.322-0.494-0.627-1-0.932-1.505c-0.474-0.785-0.948-1.57-1.422-2.355c-1.863,2.323-3.579,4.764-5.136,7.303
		C35.143,16.657,36.139,16.658,37.418,16.375z"/>
	<path style="fill:#010101;" d="M37.694,20.008c-0.237,0-0.445-0.168-0.491-0.406c-0.164-0.863-0.258-1.742-0.281-2.621
		c-1.115,0.184-2.046,0.163-3.109,0.12c-0.177-0.008-0.337-0.108-0.42-0.266c-0.083-0.156-0.078-0.345,0.015-0.496
		c1.561-2.545,3.301-5.02,5.172-7.354c0.102-0.128,0.258-0.204,0.423-0.187c0.163,0.011,0.311,0.101,0.395,0.24l1.422,2.354
		c0.302,0.501,0.604,1.001,0.923,1.491c0.583,0.896,1.232,1.767,1.93,2.589c0.12,0.142,0.152,0.339,0.082,0.511
		c-0.07,0.173-0.23,0.292-0.415,0.311l-2.734,0.266l0.367,2.673c0.02,0.142-0.022,0.285-0.115,0.394
		c-0.093,0.108-0.228,0.172-0.371,0.175c-0.904,0.016-1.822,0.084-2.728,0.202C37.737,20.007,37.715,20.008,37.694,20.008z
		 M37.418,15.875c0.114,0,0.226,0.039,0.315,0.112c0.118,0.096,0.187,0.241,0.185,0.394c-0.01,0.86,0.053,1.724,0.188,2.574
		c0.6-0.067,1.202-0.112,1.801-0.137l-0.362-2.637c-0.019-0.135,0.019-0.271,0.103-0.378c0.084-0.107,0.208-0.175,0.344-0.188
		l2.322-0.226c-0.5-0.634-0.972-1.29-1.408-1.96c-0.325-0.5-0.633-1.01-0.941-1.519l-1.049-1.738
		c-1.498,1.908-2.906,3.905-4.197,5.955c0.934,0.01,1.688-0.042,2.593-0.241C37.346,15.879,37.382,15.875,37.418,15.875z"/>
</g>
<g id="venn_diagram">
</g>
<g id="vertical_timeline">
</g>
<g id="minimum_value">
</g>
<g id="maximum_value">
</g>
<g id="average_value">
</g>
<g id="heat_map">
</g>
<g id="coconut_cocktail">
</g>
<g id="french_press">
</g>
<g id="milkshake">
</g>
<g id="energy_drink">
</g>
</svg>